{"title":"Mi Sindhutai Sapkal [2010] - Xvid - 1 CD DVDRip - MDG www.snakeb","uid":6277868,"size":732332588,"categoryP":"video","categoryS":"movies","magnet":"?xt=urn:btih:4f2d8733c881d573a88ac1a8f25468fe7125400d&amp;dn=Mi+Sindhutai+Sapkal+%5B2010%5D+-+Xvid+-+1+CD+DVDRip+-+MDG+www.snakeb&amp;tr=udp%3A%2F%2Ftracker.openbittorrent.com%3A80&amp;tr=udp%3A%2F%2Fopen.demonii.com%3A1337&amp;tr=udp%3A%2F%2Ftracker.coppersurfer.tk%3A6969&amp;tr=udp%3A%2F%2Fexodus.desync.com%3A6969","seeders":0,"leechers":1,"uploader":"snkbyt","files":2,"time":1301327226,"description":"Mi Sindhutai Sapkal 2010 Xvid 1CD DVDRip ESubs [MDG]@Mastitorrents\nInfo -\nCast -\nTejaswini Pandit\nUpendra Limaye\nJyoti Chandekar\nNeena Kulkarni\nSuhas Palshikar\nCharushila Sable\nGanesh Yadav\nJaywant Wadkar\nPranjal Shetye\nPlot\nThe biographical movie showcases the journey of survival of Sindhutai Sapkal who grew up in the interiors of Vidharbha who had to beg for money and food to earn a living for herself as well as for her young daughter. While all was lost in the battles of life the only thing that propelled Sindhutai in the forward direction was the lamp of hope.\nMedia Info -\nGeneral\nComplete name : Mi Sindhutai Sapkal [2010] - Xvid - 1 CD DVDRip - MDG Exclusive.avi\nFormat : AVI\nFormat/Info : Audio Video Interleave\nFile size : 698 MiB\nDuration : 1h 23mn\nOverall bit rate : 1 163 Kbps\nVideo\nID : 0\nFormat : MPEG-4 Visual\nFormat profile : Advanced Simple@L5\nFormat settings, BVOP : 1\nFormat settings, QPel : No\nFormat settings, GMC : No warppoints\nFormat settings, Matrix : Default (H.263)\nCodec ID : XVID\nCodec ID/Hint : XviD\nDuration : 1h 23mn\nBit rate : 1 093 Kbps\nWidth : 640 pixels\nHeight : 272 pixels\nDisplay aspect ratio : 2.35:1\nFrame rate : 23.976 fps\nColor space : YUV\nChroma subsampling : 4:2:0\nBit depth : 8 bits\nScan type : Progressive\nCompression mode : Lossy\nBits/(Pixel*Frame) : 0.262\nStream size : 656 MiB (94%)\nWriting library : XviD 1.2.1 (UTC 2008-12-04)\nAudio\nID : 1\nFormat : MPEG Audio\nFormat version : Version 2\nFormat profile : Layer 3\nMode : Joint stereo\nMode extension : MS Stereo\nCodec ID : 55\nCodec ID/Hint : MP3\nDuration : 1h 23mn\nBit rate mode : Constant\nBit rate : 64.0 Kbps\nChannel(s) : 2 channels\nSampling rate : 24.0 KHz\nCompression mode : Lossy\nStream size : 38.4 MiB (6%)\nAlignment : Aligned on interleaves\nInterleave, duration : 167 ms (4.00 video frames)\nInterleave, preload duration : 216 ms\nTitle : Mi Sindhutai Sapkal [2010] - Xvid - 1 CD DVDRip - MDG Exclusive T80 3_2ch 448Kbps DELAY 0ms\nWriting library : LAME3.98r\nEncoding settings : -m j -V 4 -q 2 -lowpass 11 -b 64\nRipper : Nordmariner\nSeeding 24x7... Extreme Seeding...\nEnjoy!","torrent":{"xt":"urn:btih:4f2d8733c881d573a88ac1a8f25468fe7125400d","amp;dn":"Mi+Sindhutai+Sapkal+%5B2010%5D+-+Xvid+-+1+CD+DVDRip+-+MDG+www.snakeb","amp;tr":["udp%3A%2F%2Ftracker.openbittorrent.com%3A80","udp%3A%2F%2Fopen.demonii.com%3A1337","udp%3A%2F%2Ftracker.coppersurfer.tk%3A6969","udp%3A%2F%2Fexodus.desync.com%3A6969"],"infoHash":"4f2d8733c881d573a88ac1a8f25468fe7125400d","infoHashBuffer":{"type":"Buffer","data":[79,45,135,51,200,129,213,115,168,138,193,168,242,84,104,254,113,37,64,13]},"announce":[],"urlList":[]}}